<mxfile host="65bd71144e">
    <diagram id="eRyD2nZNMovCreIT2USH" name="Page-1">
        <mxGraphModel dx="2385" dy="827" grid="1" gridSize="10" guides="1" tooltips="1" connect="1" arrows="1" fold="1" page="1" pageScale="1" pageWidth="1169" pageHeight="827" math="0" shadow="0">
            <root>
                <mxCell id="0"/>
                <mxCell id="1" parent="0"/>
                <mxCell id="97" value="" style="group" parent="1" vertex="1" connectable="0">
                    <mxGeometry x="230" y="120" width="240" height="360" as="geometry"/>
                </mxCell>
                <mxCell id="94" value="" style="rounded=1;whiteSpace=wrap;html=1;arcSize=9;fillColor=#E6E6E6;strokeColor=none;" parent="97" vertex="1">
                    <mxGeometry width="240" height="360" as="geometry"/>
                </mxCell>
                <mxCell id="95" value="&lt;b&gt;&lt;font style=&quot;font-size: 24px;&quot;&gt;2&lt;/font&gt;&lt;/b&gt;" style="text;html=1;align=center;verticalAlign=middle;whiteSpace=wrap;rounded=1;strokeColor=none;fillColor=default;arcSize=20;" parent="97" vertex="1">
                    <mxGeometry x="20" y="20" width="50" height="50" as="geometry"/>
                </mxCell>
                <mxCell id="96" value="&lt;font face=&quot;Helvetica&quot; style=&quot;font-size: 25px;&quot;&gt;&lt;b style=&quot;&quot;&gt;Your&amp;nbsp;&lt;/b&gt;&lt;/font&gt;&lt;div style=&quot;&quot;&gt;&lt;font face=&quot;Helvetica&quot; style=&quot;font-size: 25px;&quot;&gt;&lt;b style=&quot;&quot;&gt;Story&lt;/b&gt;&lt;/font&gt;&lt;/div&gt;" style="text;html=1;align=left;verticalAlign=middle;whiteSpace=wrap;rounded=0;" parent="97" vertex="1">
                    <mxGeometry x="20" y="280" width="170" height="60" as="geometry"/>
                </mxCell>
                <mxCell id="98" value="" style="group" parent="1" vertex="1" connectable="0">
                    <mxGeometry x="495" y="120" width="240" height="360" as="geometry"/>
                </mxCell>
                <mxCell id="99" value="" style="rounded=1;whiteSpace=wrap;html=1;arcSize=9;fillColor=#E6E6E6;strokeColor=none;" parent="98" vertex="1">
                    <mxGeometry width="240" height="360" as="geometry"/>
                </mxCell>
                <mxCell id="100" value="&lt;b&gt;&lt;font style=&quot;font-size: 24px;&quot;&gt;2&lt;/font&gt;&lt;/b&gt;" style="text;html=1;align=center;verticalAlign=middle;whiteSpace=wrap;rounded=1;strokeColor=none;fillColor=default;arcSize=20;" parent="98" vertex="1">
                    <mxGeometry x="20" y="20" width="50" height="50" as="geometry"/>
                </mxCell>
                <mxCell id="101" value="&lt;div style=&quot;&quot;&gt;&lt;font face=&quot;Helvetica&quot; style=&quot;font-size: 25px;&quot;&gt;&lt;b style=&quot;&quot;&gt;Raphael&lt;/b&gt;&lt;/font&gt;&lt;/div&gt;&lt;div style=&quot;&quot;&gt;&lt;font face=&quot;Helvetica&quot; style=&quot;font-size: 25px;&quot;&gt;&lt;b style=&quot;&quot;&gt;Randria&lt;/b&gt;&lt;/font&gt;&lt;/div&gt;" style="text;html=1;align=left;verticalAlign=middle;whiteSpace=wrap;rounded=0;" parent="98" vertex="1">
                    <mxGeometry x="20" y="280" width="170" height="60" as="geometry"/>
                </mxCell>
                <mxCell id="102" value="" style="group" parent="1" vertex="1" connectable="0">
                    <mxGeometry x="760" y="120" width="240" height="360" as="geometry"/>
                </mxCell>
                <mxCell id="103" value="" style="rounded=1;whiteSpace=wrap;html=1;arcSize=9;fillColor=#E6E6E6;strokeColor=none;" parent="102" vertex="1">
                    <mxGeometry width="240" height="360" as="geometry"/>
                </mxCell>
                <mxCell id="104" value="&lt;b&gt;&lt;font style=&quot;font-size: 24px;&quot;&gt;2&lt;/font&gt;&lt;/b&gt;" style="text;html=1;align=center;verticalAlign=middle;whiteSpace=wrap;rounded=1;strokeColor=none;fillColor=default;arcSize=20;" parent="102" vertex="1">
                    <mxGeometry x="20" y="20" width="50" height="50" as="geometry"/>
                </mxCell>
                <mxCell id="105" value="&lt;div style=&quot;&quot;&gt;&lt;font face=&quot;Helvetica&quot; style=&quot;font-size: 25px;&quot;&gt;&lt;b style=&quot;&quot;&gt;Raphael&lt;/b&gt;&lt;/font&gt;&lt;/div&gt;&lt;div style=&quot;&quot;&gt;&lt;font face=&quot;Helvetica&quot; style=&quot;font-size: 25px;&quot;&gt;&lt;b style=&quot;&quot;&gt;Randria&lt;/b&gt;&lt;/font&gt;&lt;/div&gt;" style="text;html=1;align=left;verticalAlign=middle;whiteSpace=wrap;rounded=0;" parent="102" vertex="1">
                    <mxGeometry x="20" y="280" width="170" height="60" as="geometry"/>
                </mxCell>
                <mxCell id="106" value="" style="group" parent="1" vertex="1" connectable="0">
                    <mxGeometry x="-30" y="120" width="240" height="360" as="geometry"/>
                </mxCell>
                <mxCell id="107" value="" style="rounded=1;whiteSpace=wrap;html=1;arcSize=9;fillColor=#E6E6E6;strokeColor=none;" parent="106" vertex="1">
                    <mxGeometry width="240" height="360" as="geometry"/>
                </mxCell>
                <mxCell id="109" value="&lt;b style=&quot;font-size: 25px; background-color: transparent;&quot;&gt;Create Story&lt;/b&gt;" style="text;html=1;align=left;verticalAlign=middle;whiteSpace=wrap;rounded=0;" parent="106" vertex="1">
                    <mxGeometry x="20" y="280" width="170" height="60" as="geometry"/>
                </mxCell>
                <mxCell id="110" value="" style="html=1;verticalLabelPosition=bottom;align=center;labelBackgroundColor=#ffffff;verticalAlign=top;strokeWidth=6;strokeColor=#0080F0;shadow=0;dashed=0;shape=mxgraph.ios7.icons.add;" parent="106" vertex="1">
                    <mxGeometry x="91.25" y="151.25" width="57.5" height="57.5" as="geometry"/>
                </mxCell>
                <mxCell id="123" value="" style="group;fillColor=default;" parent="1" vertex="1" connectable="0">
                    <mxGeometry x="-10" y="550" width="720" height="120" as="geometry"/>
                </mxCell>
                <mxCell id="111" value="" style="ellipse;whiteSpace=wrap;html=1;aspect=fixed;fillColor=#E6E6E6;strokeColor=none;" parent="123" vertex="1">
                    <mxGeometry width="120" height="120" as="geometry"/>
                </mxCell>
                <mxCell id="116" value="" style="group" parent="123" vertex="1" connectable="0">
                    <mxGeometry x="181.41732283464566" y="20" width="351.496062992126" height="80" as="geometry"/>
                </mxCell>
                <mxCell id="114" value="&lt;font style=&quot;font-size: 30px;&quot;&gt;&lt;b&gt;Raphael&lt;/b&gt;&lt;/font&gt;" style="text;html=1;align=left;verticalAlign=middle;whiteSpace=wrap;rounded=0;" parent="116" vertex="1">
                    <mxGeometry width="238.11023622047244" height="30" as="geometry"/>
                </mxCell>
                <mxCell id="115" value="&lt;font style=&quot;font-size: 30px;&quot;&gt;&lt;b&gt;Randrianantonanina&lt;/b&gt;&lt;/font&gt;" style="text;html=1;align=left;verticalAlign=middle;whiteSpace=wrap;rounded=0;" parent="116" vertex="1">
                    <mxGeometry y="50" width="351.496062992126" height="30" as="geometry"/>
                </mxCell>
                <mxCell id="120" value="" style="group" parent="123" vertex="1" connectable="0">
                    <mxGeometry x="663.3070866141733" y="55" width="56.69291338582677" height="10" as="geometry"/>
                </mxCell>
                <mxCell id="117" value="" style="ellipse;whiteSpace=wrap;html=1;aspect=fixed;strokeColor=none;fillColor=#666666;" parent="120" vertex="1">
                    <mxGeometry width="10" height="10" as="geometry"/>
                </mxCell>
                <mxCell id="118" value="" style="ellipse;whiteSpace=wrap;html=1;aspect=fixed;strokeColor=none;fillColor=#666666;" parent="120" vertex="1">
                    <mxGeometry x="22.677165354330707" width="10" height="10" as="geometry"/>
                </mxCell>
                <mxCell id="119" value="" style="ellipse;whiteSpace=wrap;html=1;aspect=fixed;strokeColor=none;fillColor=#666666;" parent="120" vertex="1">
                    <mxGeometry x="45.354330708661415" width="10" height="10" as="geometry"/>
                </mxCell>
                <mxCell id="152" value="" style="group" parent="1" vertex="1" connectable="0">
                    <mxGeometry y="841" width="720" height="800" as="geometry"/>
                </mxCell>
                <mxCell id="148" value="" style="group" parent="152" vertex="1" connectable="0">
                    <mxGeometry width="720" height="120" as="geometry"/>
                </mxCell>
                <mxCell id="140" value="" style="ellipse;whiteSpace=wrap;html=1;aspect=fixed;fillColor=#E6E6E6;strokeColor=none;" parent="148" vertex="1">
                    <mxGeometry width="120" height="120" as="geometry"/>
                </mxCell>
                <mxCell id="141" value="" style="group" parent="148" vertex="1" connectable="0">
                    <mxGeometry x="181.41732283464566" y="20" width="351.496062992126" height="80" as="geometry"/>
                </mxCell>
                <mxCell id="142" value="&lt;font style=&quot;font-size: 30px;&quot;&gt;&lt;b&gt;Raphael&lt;/b&gt;&lt;/font&gt;" style="text;html=1;align=left;verticalAlign=middle;whiteSpace=wrap;rounded=0;" parent="141" vertex="1">
                    <mxGeometry width="238.11023622047244" height="30" as="geometry"/>
                </mxCell>
                <mxCell id="143" value="&lt;font style=&quot;font-size: 30px;&quot;&gt;&lt;b&gt;Randrianantonanina&lt;/b&gt;&lt;/font&gt;" style="text;html=1;align=left;verticalAlign=middle;whiteSpace=wrap;rounded=0;" parent="141" vertex="1">
                    <mxGeometry y="50" width="351.496062992126" height="30" as="geometry"/>
                </mxCell>
                <mxCell id="144" value="" style="group" parent="148" vertex="1" connectable="0">
                    <mxGeometry x="663.3070866141733" y="55" width="56.69291338582677" height="10" as="geometry"/>
                </mxCell>
                <mxCell id="145" value="" style="ellipse;whiteSpace=wrap;html=1;aspect=fixed;strokeColor=none;fillColor=#666666;" parent="144" vertex="1">
                    <mxGeometry width="10" height="10" as="geometry"/>
                </mxCell>
                <mxCell id="146" value="" style="ellipse;whiteSpace=wrap;html=1;aspect=fixed;strokeColor=none;fillColor=#666666;" parent="144" vertex="1">
                    <mxGeometry x="22.677165354330707" width="10" height="10" as="geometry"/>
                </mxCell>
                <mxCell id="147" value="" style="ellipse;whiteSpace=wrap;html=1;aspect=fixed;strokeColor=none;fillColor=#666666;" parent="144" vertex="1">
                    <mxGeometry x="45.354330708661415" width="10" height="10" as="geometry"/>
                </mxCell>
                <mxCell id="150" value="&lt;span style=&quot;font-size: 30px;&quot;&gt;&lt;b&gt;My publication&#39;s description,&amp;nbsp;&lt;/b&gt;&lt;/span&gt;&lt;div&gt;&lt;span style=&quot;font-size: 30px;&quot;&gt;&lt;b&gt;I try to do a small thing&lt;/b&gt;&lt;/span&gt;&lt;/div&gt;" style="text;html=1;align=left;verticalAlign=middle;whiteSpace=wrap;rounded=0;" parent="152" vertex="1">
                    <mxGeometry y="170" width="520" height="30" as="geometry"/>
                </mxCell>
                <mxCell id="151" value="" style="rounded=1;whiteSpace=wrap;html=1;arcSize=2;strokeColor=none;fillColor=#E6E6E6;" parent="152" vertex="1">
                    <mxGeometry y="240" width="720" height="560" as="geometry"/>
                </mxCell>
                <mxCell id="179" value="" style="group" parent="1" vertex="1" connectable="0">
                    <mxGeometry x="-200" y="2110" width="940" height="290" as="geometry"/>
                </mxCell>
                <mxCell id="178" value="" style="rounded=0;whiteSpace=wrap;html=1;strokeColor=none;" parent="179" vertex="1">
                    <mxGeometry width="940" height="290" as="geometry"/>
                </mxCell>
                <mxCell id="177" value="" style="group" parent="179" vertex="1" connectable="0">
                    <mxGeometry x="33.31" y="45" width="856.6899999999999" height="200" as="geometry"/>
                </mxCell>
                <mxCell id="175" value="" style="group" parent="177" vertex="1" connectable="0">
                    <mxGeometry x="240" y="50" width="616.6899999999999" height="110" as="geometry"/>
                </mxCell>
                <mxCell id="156" value="&lt;b&gt;&lt;font style=&quot;font-size: 30px;&quot;&gt;Raphael Randrianantonaina&lt;/font&gt;&lt;/b&gt;" style="text;html=1;align=left;verticalAlign=middle;whiteSpace=wrap;rounded=0;" parent="175" vertex="1">
                    <mxGeometry width="490" height="30" as="geometry"/>
                </mxCell>
                <mxCell id="157" value="&lt;font style=&quot;font-size: 30px;&quot;&gt;mentioned you in comment&lt;/font&gt;" style="text;html=1;align=left;verticalAlign=middle;whiteSpace=wrap;rounded=0;" parent="175" vertex="1">
                    <mxGeometry y="39" width="410" height="30" as="geometry"/>
                </mxCell>
                <mxCell id="158" value="&lt;font style=&quot;font-size: 30px; color: rgb(204, 204, 204);&quot;&gt;16 hours ago&lt;/font&gt;" style="text;html=1;align=left;verticalAlign=middle;whiteSpace=wrap;rounded=0;" parent="175" vertex="1">
                    <mxGeometry y="80" width="410" height="30" as="geometry"/>
                </mxCell>
                <mxCell id="171" value="" style="group" parent="175" vertex="1" connectable="0">
                    <mxGeometry x="559.9970866141732" y="49" width="56.69291338582677" height="10" as="geometry"/>
                </mxCell>
                <mxCell id="172" value="" style="ellipse;whiteSpace=wrap;html=1;aspect=fixed;strokeColor=none;fillColor=#666666;" parent="171" vertex="1">
                    <mxGeometry width="10" height="10" as="geometry"/>
                </mxCell>
                <mxCell id="173" value="" style="ellipse;whiteSpace=wrap;html=1;aspect=fixed;strokeColor=none;fillColor=#666666;" parent="171" vertex="1">
                    <mxGeometry x="22.677165354330707" width="10" height="10" as="geometry"/>
                </mxCell>
                <mxCell id="174" value="" style="ellipse;whiteSpace=wrap;html=1;aspect=fixed;strokeColor=none;fillColor=#666666;" parent="171" vertex="1">
                    <mxGeometry x="45.354330708661415" width="10" height="10" as="geometry"/>
                </mxCell>
                <mxCell id="176" value="" style="group" parent="177" vertex="1" connectable="0">
                    <mxGeometry width="200" height="200" as="geometry"/>
                </mxCell>
                <mxCell id="154" value="" style="ellipse;whiteSpace=wrap;html=1;aspect=fixed;fillColor=#E6E6E6;strokeColor=none;" parent="176" vertex="1">
                    <mxGeometry width="200" height="200" as="geometry"/>
                </mxCell>
                <mxCell id="155" value="" style="ellipse;whiteSpace=wrap;html=1;aspect=fixed;fillColor=#666666;strokeColor=#FFFFFF;strokeWidth=4;" parent="176" vertex="1">
                    <mxGeometry x="130" y="120" width="70" height="70" as="geometry"/>
                </mxCell>
                <mxCell id="180" value="" style="group" parent="1" vertex="1" connectable="0">
                    <mxGeometry x="-200" y="2400" width="940" height="290" as="geometry"/>
                </mxCell>
                <mxCell id="181" value="" style="rounded=0;whiteSpace=wrap;html=1;strokeColor=none;fillColor=#CCFFFF;" parent="180" vertex="1">
                    <mxGeometry width="940" height="290" as="geometry"/>
                </mxCell>
                <mxCell id="182" value="" style="group" parent="180" vertex="1" connectable="0">
                    <mxGeometry x="33.31" y="45" width="856.6899999999999" height="200" as="geometry"/>
                </mxCell>
                <mxCell id="183" value="" style="group" parent="182" vertex="1" connectable="0">
                    <mxGeometry x="240" y="50" width="616.6899999999999" height="110" as="geometry"/>
                </mxCell>
                <mxCell id="184" value="&lt;b&gt;&lt;font style=&quot;font-size: 30px;&quot;&gt;Raphael Randrianantonaina&lt;/font&gt;&lt;/b&gt;" style="text;html=1;align=left;verticalAlign=middle;whiteSpace=wrap;rounded=0;" parent="183" vertex="1">
                    <mxGeometry width="490" height="30" as="geometry"/>
                </mxCell>
                <mxCell id="185" value="&lt;font style=&quot;font-size: 30px;&quot;&gt;mentioned you in comment&lt;/font&gt;" style="text;html=1;align=left;verticalAlign=middle;whiteSpace=wrap;rounded=0;" parent="183" vertex="1">
                    <mxGeometry y="39" width="410" height="30" as="geometry"/>
                </mxCell>
                <mxCell id="186" value="&lt;font style=&quot;font-size: 30px; color: rgb(204, 204, 204);&quot;&gt;16 hours ago&lt;/font&gt;" style="text;html=1;align=left;verticalAlign=middle;whiteSpace=wrap;rounded=0;" parent="183" vertex="1">
                    <mxGeometry y="80" width="410" height="30" as="geometry"/>
                </mxCell>
                <mxCell id="187" value="" style="group" parent="183" vertex="1" connectable="0">
                    <mxGeometry x="559.9970866141732" y="49" width="56.69291338582677" height="10" as="geometry"/>
                </mxCell>
                <mxCell id="188" value="" style="ellipse;whiteSpace=wrap;html=1;aspect=fixed;strokeColor=none;fillColor=#666666;" parent="187" vertex="1">
                    <mxGeometry width="10" height="10" as="geometry"/>
                </mxCell>
                <mxCell id="189" value="" style="ellipse;whiteSpace=wrap;html=1;aspect=fixed;strokeColor=none;fillColor=#666666;" parent="187" vertex="1">
                    <mxGeometry x="22.677165354330707" width="10" height="10" as="geometry"/>
                </mxCell>
                <mxCell id="190" value="" style="ellipse;whiteSpace=wrap;html=1;aspect=fixed;strokeColor=none;fillColor=#666666;" parent="187" vertex="1">
                    <mxGeometry x="45.354330708661415" width="10" height="10" as="geometry"/>
                </mxCell>
                <mxCell id="191" value="" style="group" parent="182" vertex="1" connectable="0">
                    <mxGeometry width="200" height="200" as="geometry"/>
                </mxCell>
                <mxCell id="192" value="" style="ellipse;whiteSpace=wrap;html=1;aspect=fixed;fillColor=#E6E6E6;strokeColor=none;" parent="191" vertex="1">
                    <mxGeometry width="200" height="200" as="geometry"/>
                </mxCell>
                <mxCell id="193" value="" style="ellipse;whiteSpace=wrap;html=1;aspect=fixed;fillColor=#666666;strokeColor=#FFFFFF;strokeWidth=4;" parent="191" vertex="1">
                    <mxGeometry x="130" y="120" width="70" height="70" as="geometry"/>
                </mxCell>
                <mxCell id="194" value="" style="group" parent="1" vertex="1" connectable="0">
                    <mxGeometry x="-200" y="2690" width="940" height="290" as="geometry"/>
                </mxCell>
                <mxCell id="195" value="" style="rounded=0;whiteSpace=wrap;html=1;strokeColor=none;" parent="194" vertex="1">
                    <mxGeometry width="940" height="290" as="geometry"/>
                </mxCell>
                <mxCell id="196" value="" style="group" parent="194" vertex="1" connectable="0">
                    <mxGeometry x="33.31" y="45" width="856.6899999999999" height="200" as="geometry"/>
                </mxCell>
                <mxCell id="197" value="" style="group" parent="196" vertex="1" connectable="0">
                    <mxGeometry x="240" y="50" width="616.6899999999999" height="110" as="geometry"/>
                </mxCell>
                <mxCell id="198" value="&lt;b&gt;&lt;font style=&quot;font-size: 30px;&quot;&gt;Raphael Randrianantonaina&lt;/font&gt;&lt;/b&gt;" style="text;html=1;align=left;verticalAlign=middle;whiteSpace=wrap;rounded=0;" parent="197" vertex="1">
                    <mxGeometry width="490" height="30" as="geometry"/>
                </mxCell>
                <mxCell id="199" value="&lt;font style=&quot;font-size: 30px;&quot;&gt;mentioned you in comment&lt;/font&gt;" style="text;html=1;align=left;verticalAlign=middle;whiteSpace=wrap;rounded=0;" parent="197" vertex="1">
                    <mxGeometry y="39" width="410" height="30" as="geometry"/>
                </mxCell>
                <mxCell id="200" value="&lt;font style=&quot;font-size: 30px; color: rgb(204, 204, 204);&quot;&gt;16 hours ago&lt;/font&gt;" style="text;html=1;align=left;verticalAlign=middle;whiteSpace=wrap;rounded=0;" parent="197" vertex="1">
                    <mxGeometry y="80" width="410" height="30" as="geometry"/>
                </mxCell>
                <mxCell id="201" value="" style="group" parent="197" vertex="1" connectable="0">
                    <mxGeometry x="559.9970866141732" y="49" width="56.69291338582677" height="10" as="geometry"/>
                </mxCell>
                <mxCell id="202" value="" style="ellipse;whiteSpace=wrap;html=1;aspect=fixed;strokeColor=none;fillColor=#666666;" parent="201" vertex="1">
                    <mxGeometry width="10" height="10" as="geometry"/>
                </mxCell>
                <mxCell id="203" value="" style="ellipse;whiteSpace=wrap;html=1;aspect=fixed;strokeColor=none;fillColor=#666666;" parent="201" vertex="1">
                    <mxGeometry x="22.677165354330707" width="10" height="10" as="geometry"/>
                </mxCell>
                <mxCell id="204" value="" style="ellipse;whiteSpace=wrap;html=1;aspect=fixed;strokeColor=none;fillColor=#666666;" parent="201" vertex="1">
                    <mxGeometry x="45.354330708661415" width="10" height="10" as="geometry"/>
                </mxCell>
                <mxCell id="205" value="" style="group" parent="196" vertex="1" connectable="0">
                    <mxGeometry width="200" height="200" as="geometry"/>
                </mxCell>
                <mxCell id="206" value="" style="ellipse;whiteSpace=wrap;html=1;aspect=fixed;fillColor=#E6E6E6;strokeColor=none;" parent="205" vertex="1">
                    <mxGeometry width="200" height="200" as="geometry"/>
                </mxCell>
                <mxCell id="207" value="" style="ellipse;whiteSpace=wrap;html=1;aspect=fixed;fillColor=#666666;strokeColor=#FFFFFF;strokeWidth=4;" parent="205" vertex="1">
                    <mxGeometry x="130" y="120" width="70" height="70" as="geometry"/>
                </mxCell>
                <mxCell id="208" value="" style="group" parent="1" vertex="1" connectable="0">
                    <mxGeometry x="-200" y="2980" width="940" height="290" as="geometry"/>
                </mxCell>
                <mxCell id="209" value="" style="rounded=0;whiteSpace=wrap;html=1;strokeColor=none;fillColor=#CCFFFF;" parent="208" vertex="1">
                    <mxGeometry width="940" height="290" as="geometry"/>
                </mxCell>
                <mxCell id="210" value="" style="group" parent="208" vertex="1" connectable="0">
                    <mxGeometry x="33.31" y="45" width="856.6899999999999" height="200" as="geometry"/>
                </mxCell>
                <mxCell id="211" value="" style="group" parent="210" vertex="1" connectable="0">
                    <mxGeometry x="240" y="50" width="616.6899999999999" height="110" as="geometry"/>
                </mxCell>
                <mxCell id="212" value="&lt;b&gt;&lt;font style=&quot;font-size: 30px;&quot;&gt;Raphael Randrianantonaina&lt;/font&gt;&lt;/b&gt;" style="text;html=1;align=left;verticalAlign=middle;whiteSpace=wrap;rounded=0;" parent="211" vertex="1">
                    <mxGeometry width="490" height="30" as="geometry"/>
                </mxCell>
                <mxCell id="213" value="&lt;font style=&quot;font-size: 30px;&quot;&gt;mentioned you in comment&lt;/font&gt;" style="text;html=1;align=left;verticalAlign=middle;whiteSpace=wrap;rounded=0;" parent="211" vertex="1">
                    <mxGeometry y="39" width="410" height="30" as="geometry"/>
                </mxCell>
                <mxCell id="214" value="&lt;font style=&quot;font-size: 30px; color: rgb(204, 204, 204);&quot;&gt;16 hours ago&lt;/font&gt;" style="text;html=1;align=left;verticalAlign=middle;whiteSpace=wrap;rounded=0;" parent="211" vertex="1">
                    <mxGeometry y="80" width="410" height="30" as="geometry"/>
                </mxCell>
                <mxCell id="215" value="" style="group" parent="211" vertex="1" connectable="0">
                    <mxGeometry x="559.9970866141732" y="49" width="56.69291338582677" height="10" as="geometry"/>
                </mxCell>
                <mxCell id="216" value="" style="ellipse;whiteSpace=wrap;html=1;aspect=fixed;strokeColor=none;fillColor=#666666;" parent="215" vertex="1">
                    <mxGeometry width="10" height="10" as="geometry"/>
                </mxCell>
                <mxCell id="217" value="" style="ellipse;whiteSpace=wrap;html=1;aspect=fixed;strokeColor=none;fillColor=#666666;" parent="215" vertex="1">
                    <mxGeometry x="22.677165354330707" width="10" height="10" as="geometry"/>
                </mxCell>
                <mxCell id="218" value="" style="ellipse;whiteSpace=wrap;html=1;aspect=fixed;strokeColor=none;fillColor=#666666;" parent="215" vertex="1">
                    <mxGeometry x="45.354330708661415" width="10" height="10" as="geometry"/>
                </mxCell>
                <mxCell id="219" value="" style="group" parent="210" vertex="1" connectable="0">
                    <mxGeometry width="200" height="200" as="geometry"/>
                </mxCell>
                <mxCell id="220" value="" style="ellipse;whiteSpace=wrap;html=1;aspect=fixed;fillColor=#E6E6E6;strokeColor=none;" parent="219" vertex="1">
                    <mxGeometry width="200" height="200" as="geometry"/>
                </mxCell>
                <mxCell id="221" value="" style="ellipse;whiteSpace=wrap;html=1;aspect=fixed;fillColor=#666666;strokeColor=#FFFFFF;strokeWidth=4;" parent="219" vertex="1">
                    <mxGeometry x="130" y="120" width="70" height="70" as="geometry"/>
                </mxCell>
            </root>
        </mxGraphModel>
    </diagram>
</mxfile>